PathFileType  4	(X/Y/Z) C:\Users\antoi\Documents\MyRepositories\mobilecap\ResultsAnalysis
DataRate	CameraRate	NumFrames	NumMarkers	Units	OrigDataRate	OrigDataStartFrame	OrigNumFrames
100.0	100.0	5	55	mm	100.0	133	265
Frame#	Time	r_knee			r_shank_antsup			r_ankle			r_calc			r_5meta			r_toe			L_knee			L_shank_antsup			L_ankle			L_calc			L_5meta			L_toe			r_mknee			r_mankle			L_mknee			L_mankle			r_sh2			r_sh3			r_sh4			L_sh2			L_sh3			r_thigh1			r_thigh2			r_thigh3			r_thigh4			r_thigh5			L_thigh1			L_thigh2			L_thigh3			L_thigh4			r.ASIS			r.PSIS			L.ASIS			L.PSIS			C7			R_Shoulder			L_Shoulder			R_Sternum			L_Sternum			R_humerus			R_elbow_med			R_elbow_lat			R_forearm			R_wrist_radius			R_wrist_ulna			L_humerus			L_elbow_med			L_elbow_lat			L_forearm			L_wrist_radius			L_wrist_ulna			R_HJC			L_HJC			R_HJC_reg			L_HJC_reg			
		X1	Y1	Z1	X2	Y2	Z2	X3	Y3	Z3	X4	Y4	Z4	X5	Y5	Z5	X6	Y6	Z6	X7	Y7	Z7	X8	Y8	Z8	X9	Y9	Z9	X10	Y10	Z10	X11	Y11	Z11	X12	Y12	Z12	X13	Y13	Z13	X14	Y14	Z14	X15	Y15	Z15	X16	Y16	Z16	X17	Y17	Z17	X18	Y18	Z18	X19	Y19	Z19	X20	Y20	Z20	X21	Y21	Z21	X22	Y22	Z22	X23	Y23	Z23	X24	Y24	Z24	X25	Y25	Z25	X26	Y26	Z26	X27	Y27	Z27	X28	Y28	Z28	X29	Y29	Z29	X30	Y30	Z30	X31	Y31	Z31	X32	Y32	Z32	X33	Y33	Z33	X34	Y34	Z34	X35	Y35	Z35	X36	Y36	Z36	X37	Y37	Z37	X38	Y38	Z38	X39	Y39	Z39	X40	Y40	Z40	X41	Y41	Z41	X42	Y42	Z42	X43	Y43	Z43	X44	Y44	Z44	X45	Y45	Z45	X46	Y46	Z46	X47	Y47	Z47	X48	Y48	Z48	X49	Y49	Z49	X50	Y50	Z50	X51	Y51	Z51	X52	Y52	Z52	X53	Y53	Z53	X54	Y54	Z54	X55	Y55	Z55	

133	1.32000000	-206.51694	501.60364	-391.90324	-173.86427	433.74807	-402.70016	-250.69319	98.71811	-366.00636	-320.96105	63.86868	-394.11384	-144.62747	45.84380	-335.65260	-102.28512	70.05917	-396.02950	-215.83383	497.68972	-732.05232	-193.09514	410.27140	-741.42802	-254.89813	101.18437	-740.58272	-320.56711	62.54548	-698.82270	-151.11658	42.84800	-788.15149	-110.22123	62.99224	-732.39498	-209.84559	486.97217	-513.55504	-239.80394	104.94802	-444.30797	-212.74041	487.33890	-608.87786	-224.96844	100.29248	-664.56137	-198.22531	326.42882	-365.85938	-248.52292	452.45955	-371.44686	-269.89137	343.29748	-355.43317	-280.03704	422.04771	-745.83612	-283.30473	300.52046	-761.92449	-131.96127	820.90065	-387.49982	-137.10200	709.32440	-389.51217	-194.01021	686.94673	-360.21651	-244.05909	824.41614	-367.82211	-246.97407	707.29947	-369.38811	-164.03195	765.88389	-765.68723	-166.87025	628.19411	-747.79624	-276.80356	767.07266	-736.22996	-272.60315	626.77055	-726.22022	-113.74889	978.99436	-438.88663	-309.55476	1013.64870	-523.93911	-106.20229	958.88684	-692.01898	-313.22158	1009.30048	-620.70732	-328.09003	1419.10757	-584.55085	-230.10846	1389.83860	-404.30368	-257.28700	1388.94123	-763.96828	-189.10764	1399.50081	-563.50867	-185.27271	1402.72314	-605.10535	-209.41652	1247.99879	-350.78428	-266.62168	1041.87788	-404.68343	-243.02152	1052.59519	-338.55128	-161.85560	935.70680	-334.75096	-117.87996	806.43351	-342.10441	-140.32905	797.22963	-316.46138	-228.69367	1269.68557	-816.39739	-266.74468	1039.43249	-741.12867	-239.31023	1053.33870	-812.97534	-166.90058	963.78942	-798.96745	-120.16719	810.67620	-790.43916	-142.60427	804.02180	-813.98719	-191.78667	897.96051	-460.35408	-189.07796	886.40207	-666.48338	-181.71516	899.42158	-468.31959	-188.05748	891.90060	-635.69825	
134	1.33000000	-206.50205	501.62668	-391.90348	-173.83387	433.76579	-402.72825	-250.69813	98.71906	-366.02942	-320.93591	63.89528	-394.11382	-144.59620	45.87885	-335.63329	-102.29124	70.05532	-396.02158	-215.81091	497.67286	-731.99401	-193.08697	410.29773	-741.46768	-254.88968	101.18435	-740.58797	-320.55631	62.54184	-698.80226	-151.11041	42.87939	-788.13373	-110.21809	62.98254	-732.39673	-209.86713	486.98493	-513.58151	-239.80160	104.95589	-444.30939	-212.67670	487.37121	-608.81634	-224.97221	100.31640	-664.56480	-198.22923	326.41799	-365.87674	-248.53923	452.46357	-371.44090	-269.61935	343.14056	-355.27391	-280.02960	422.02518	-745.79330	-283.28679	300.54957	-761.91950	-131.96128	820.86731	-387.49228	-137.13563	709.30528	-389.50331	-194.02846	686.94658	-360.24535	-244.06855	824.38762	-367.84072	-246.97696	707.30573	-369.39724	-164.04362	765.87680	-765.74020	-166.86336	628.19580	-747.79197	-276.75663	767.13106	-736.26777	-272.53778	626.77228	-726.20112	-113.74563	979.04013	-438.84025	-309.57959	1013.70661	-524.01091	-106.19451	958.88849	-692.01620	-313.16775	1009.33150	-620.71882	-328.08225	1419.10263	-584.53448	-230.10468	1389.85549	-404.31801	-257.27198	1388.93603	-763.95269	-189.09563	1399.47227	-563.46784	-185.27116	1402.72280	-605.10244	-209.45139	1247.93815	-350.82410	-266.62071	1041.83281	-404.70226	-243.04160	1052.58922	-338.53598	-161.85645	935.67847	-334.74488	-117.89882	806.42410	-342.08443	-140.36647	797.22572	-316.41585	-228.67014	1269.69925	-816.37547	-266.70427	1039.42883	-741.08787	-239.29597	1053.35052	-812.96959	-166.87497	963.78100	-798.93325	-120.15331	810.67798	-790.44660	-142.59538	804.02241	-813.97418	-191.81032	898.01340	-460.34078	-189.06002	886.41462	-666.46726	-181.79419	899.46818	-468.31426	-188.00537	891.89428	-635.72648	
135	1.34000000	-206.50749	501.62531	-391.91487	-173.80258	433.76473	-402.74138	-250.72427	98.71009	-366.04848	-320.93128	63.91403	-394.13831	-144.59227	45.90007	-335.63250	-102.28939	70.05598	-396.02899	-215.79181	497.65581	-731.92576	-193.06981	410.29514	-741.43557	-254.88716	101.17516	-740.58855	-320.56814	62.52030	-698.78853	-151.09805	42.90561	-788.12845	-110.22262	62.98026	-732.40969	-209.86137	486.98988	-513.56307	-239.80009	104.95782	-444.31581	-212.66802	487.36587	-608.81818	-224.97142	100.32116	-664.60569	-198.29835	326.40428	-365.87834	-248.54824	452.45138	-371.42717	-269.37652	343.02266	-355.13799	-280.02698	422.05217	-745.82410	-283.23689	300.56500	-762.00663	-131.93482	820.87803	-387.49704	-137.11595	709.34445	-389.53749	-194.04331	686.93962	-360.26132	-244.06509	824.35420	-367.82914	-246.96752	707.31225	-369.39706	-164.12436	765.86158	-765.80694	-166.85599	628.18928	-747.79158	-276.73008	767.15892	-736.29620	-272.50701	626.71748	-726.14549	-113.74504	979.04559	-438.83959	-309.60374	1013.75615	-524.08550	-106.19125	958.88141	-692.00993	-313.10695	1009.32848	-620.64177	-328.07720	1419.08484	-584.53595	-230.10659	1389.87525	-404.33711	-257.25175	1388.93562	-763.94377	-189.08783	1399.47521	-563.45976	-185.27045	1402.71957	-605.10072	-209.47295	1247.88825	-350.86320	-266.64759	1041.86917	-404.71809	-243.05506	1052.63151	-338.56187	-161.87911	935.68100	-334.71864	-117.90335	806.41828	-342.07036	-140.39221	797.21363	-316.37474	-228.63741	1269.72308	-816.34293	-266.64574	1039.41154	-741.03290	-239.27991	1053.34586	-812.96450	-166.85024	963.77182	-798.90549	-120.14892	810.66531	-790.50512	-142.58940	804.01686	-813.96914	-191.81790	898.03357	-460.32776	-189.05799	886.41285	-666.45288	-181.89557	899.55490	-468.32886	-187.96934	891.87811	-635.73850	
136	1.35000000	-206.51360	501.63237	-391.92064	-173.79661	433.74186	-402.74244	-250.72584	98.72951	-366.03383	-320.92753	63.91968	-394.16013	-144.60849	45.90339	-335.65600	-102.28168	70.05571	-396.04497	-215.79436	497.65747	-731.93062	-193.05356	410.27255	-741.38610	-254.88578	101.16718	-740.58599	-320.57687	62.52449	-698.80944	-151.09586	42.89229	-788.13077	-110.22859	62.98186	-732.42747	-209.72156	486.89815	-513.41362	-239.80062	104.94494	-444.31775	-212.68599	487.35290	-608.83508	-224.96515	100.32671	-664.64942	-198.31508	326.46947	-365.86174	-248.52942	452.45959	-371.43046	-269.43873	343.07441	-355.18594	-280.02547	422.09638	-745.89797	-283.16650	300.61247	-762.07494	-131.90231	820.92948	-387.51041	-137.04099	709.37322	-389.53480	-194.03052	686.95065	-360.23247	-244.07677	824.36018	-367.83447	-246.95617	707.33221	-369.39611	-164.18555	765.85174	-765.81930	-166.84298	628.18136	-747.79080	-276.74896	767.12283	-736.27357	-272.51044	626.66046	-726.10253	-113.74311	979.05762	-438.86772	-309.58492	1013.74181	-524.08332	-106.18779	958.87158	-692.00470	-313.09617	1009.29468	-620.58813	-328.06111	1419.08150	-584.56078	-230.10132	1389.88131	-404.30516	-257.21014	1388.95657	-763.98522	-189.07517	1399.47642	-563.45608	-185.26400	1402.72502	-605.09787	-209.45611	1247.91817	-350.81325	-266.67604	1041.90636	-404.72081	-243.04664	1052.65748	-338.60024	-161.90882	935.73018	-334.69353	-117.91923	806.43487	-342.08857	-140.41735	797.22304	-316.37097	-228.60348	1269.73143	-816.32763	-266.59369	1039.37063	-741.01712	-239.26133	1053.32534	-812.96600	-166.82667	963.76101	-798.89877	-120.15045	810.65162	-790.51260	-142.58062	804.00458	-813.97302	-191.78615	898.03427	-460.31319	-189.04916	886.39472	-666.43754	-181.87597	899.58458	-468.32822	-187.96623	891.87112	-635.71487	
137	1.36000000	-206.52661	501.64329	-391.92373	-173.80922	433.70202	-402.76398	-250.73396	98.74255	-366.04079	-320.92557	63.92153	-394.15962	-144.61551	45.91661	-335.68380	-102.28129	70.05561	-396.06979	-215.79718	497.65735	-732.01632	-193.04610	410.25643	-741.38413	-254.88598	101.16311	-740.58748	-320.58076	62.53521	-698.84725	-151.10329	42.86302	-788.13264	-110.23377	62.96964	-732.43767	-209.54269	486.73209	-513.27711	-239.80177	104.92583	-444.32082	-212.68682	487.36048	-608.82263	-224.97423	100.32769	-664.66223	-198.25782	326.51462	-365.81968	-248.50250	452.48304	-371.45114	-269.64363	343.23037	-355.28117	-280.01870	422.08040	-745.90577	-283.20965	300.54916	-762.02697	-131.91254	820.94429	-387.51035	-137.08306	709.31542	-389.43238	-194.01155	686.97963	-360.19034	-244.11166	824.39124	-367.88251	-246.98947	707.33732	-369.41967	-164.12460	765.84416	-765.75712	-166.83446	628.16849	-747.78994	-276.77776	767.05037	-736.22967	-272.50844	626.67416	-726.14616	-113.72870	979.12113	-438.83125	-309.56136	1013.70572	-524.06694	-106.18394	958.85950	-692.00716	-313.13514	1009.26370	-620.62888	-328.02585	1419.10474	-584.57560	-230.10797	1389.86010	-404.26777	-257.15430	1388.97773	-764.04206	-189.08361	1399.49903	-563.46545	-185.24870	1402.72694	-605.09091	-209.42515	1247.97874	-350.75301	-266.67112	1041.91177	-404.72097	-243.04073	1052.64463	-338.57388	-161.93375	935.76684	-334.69049	-117.96622	806.43316	-342.13107	-140.43351	797.25643	-316.38148	-228.57573	1269.70939	-816.33745	-266.57487	1039.34135	-741.02912	-239.24163	1053.30700	-812.97350	-166.79676	963.73515	-798.87850	-120.14411	810.65562	-790.41220	-142.57582	803.99109	-813.97970	-191.75716	898.06497	-460.28631	-189.02131	886.37059	-666.40757	-181.77771	899.55793	-468.25617	-187.97372	891.85666	-635.66895	
